<svg width="1000" height="1000" viewBox="0 0 1000 1000" xmlns="http://www.w3.org/2000/svg"><defs/><path fill="#fb5958" transform="matrix(0.44928300249412245 0 0 0.44928300249412245 19.82581191021159 38.38932162746081)" d="M 507.03762053571 907.53855389583 C 463.13762053571 907.53855389583 421.33762053571 926.63855389583 383.63762053571 944.53855389583 C 391.33762053571 1039.93855389583 436.23762053571 1110.53855389583 507.03762053571 1147.33855389583 C 581.63762053571 1110.53855389583 622.73762053571 1040.03855389583 630.43762053571 944.53855389583 C 592.73762053571 926.73855389583 550.93762053571 907.53855389583 507.03762053571 907.53855389583 Z M 435.83762053571 1059.53855389583 C 417.53762053571 1029.93855389583 406.13762053571 994.83855389583 401.83762053571 955.23855389583 C 432.73762053571 940.73855389583 469.73762053571 924.73855389583 507.03762053571 924.73855389583 C 521.03762053571 924.73855389583 535.03762053571 927.03855389583 548.73762053571 930.63855389583 C 537.43762053571 928.13855389583 526.23762053571 927.33855389583 514.73762053571 927.33855389583 C 476.53762053571 927.33855389583 440.03762053571 943.73855389583 408.43762053571 958.63855389583 C 412.33762053571 999.03855389583 425.43762053571 1035.53855389583 435.83762053571 1059.53855389583 Z M 515.53762053571 1042.53855389583 L 496.23762053571 1042.53855389583 L 500.23762053571 1009.33855389583 C 494.93762053571 1007.13855389583 491.23762053571 1001.93855389583 491.23762053571 995.83855389583 C 491.23762053571 987.73855389583 497.73762053571 981.23855389583 505.83762053571 981.23855389583 C 513.93762053571 981.23855389583 520.43762053571 987.73855389583 520.43762053571 995.83855389583 C 520.43762053571 1001.93855389583 516.73762053571 1007.13855389583 511.43762053571 1009.33855389583 L 515.53762053571 1042.53855389583 Z M 507.23762053571 1128.33855389583 C 496.93762053571 1122.53855389583 484.23762053571 1114.23855389583 475.33762053571 1106.03855389583 C 484.93762053571 1112.03855389583 496.93762053571 1117.93855389583 507.13762053571 1122.03855389583 C 560.03762053571 1096.53855389583 590.63762053571 1038.43855389583 594.23762053571 1030.43855389583 C 590.03762053571 1040.73855389583 585.13762053571 1050.53855389583 579.63762053571 1059.63855389583 C 561.93762053571 1088.93855389583 537.63762053571 1112.03855389583 507.23762053571 1128.33855389583 Z"/><path fill="#fb5958" transform="matrix(0.44928300249412245 0 0 0.44928300249412245 19.82581191021159 38.38932162746081)" d="M 675.63762053571 974.43855389583 C 677.83762053571 980.03855389583 683.23762053571 983.63855389583 689.33762053571 983.63855389583 C 697.43762053571 983.63855389583 704.13762053571 977.03855389583 704.13762053571 968.83855389583 C 704.13762053571 960.73855389583 697.53762053571 954.03855389583 689.33762053571 954.03855389583 C 683.23762053571 954.03855389583 677.83762053571 957.63855389583 675.63762053571 963.23855389583 L 634.43762053571 963.23855389583 C 633.93762053571 966.93855389583 633.43762053571 970.63855389583 632.83762053571 974.33855389583 L 675.63762053571 974.43855389583 Z M 689.33762053571 962.13855389583 C 693.03762053571 962.13855389583 696.13762053571 965.13855389583 696.13762053571 968.93855389583 C 696.13762053571 972.63855389583 693.13762053571 975.73855389583 689.33762053571 975.73855389583 C 685.63762053571 975.73855389583 682.53762053571 972.73855389583 682.53762053571 968.93855389583 C 682.63762053571 965.13855389583 685.63762053571 962.13855389583 689.33762053571 962.13855389583 Z"/><path fill="#fb5958" transform="matrix(0.44928300249412245 0 0 0.44928300249412245 19.82581191021159 38.38932162746081)" d="M 709.53762053571 999.13855389583 C 703.43762053571 999.13855389583 698.03762053571 1002.73855389583 695.83762053571 1008.33855389583 L 625.43762053571 1008.23855389583 C 624.43762053571 1012.03855389583 623.23762053571 1015.73855389583 622.13762053571 1019.33855389583 L 695.83762053571 1019.33855389583 C 698.03762053571 1024.93855389583 703.43762053571 1028.53855389583 709.53762053571 1028.53855389583 C 717.63762053571 1028.53855389583 724.33762053571 1021.93855389583 724.33762053571 1013.73855389583 C 724.33762053571 1005.83855389583 717.73762053571 999.13855389583 709.53762053571 999.13855389583 Z M 709.53762053571 1020.73855389583 C 705.83762053571 1020.73855389583 702.73762053571 1017.73855389583 702.73762053571 1013.93855389583 C 702.73762053571 1010.23855389583 705.73762053571 1007.13855389583 709.53762053571 1007.13855389583 C 713.23762053571 1007.13855389583 716.33762053571 1010.13855389583 716.33762053571 1013.93855389583 C 716.33762053571 1017.63855389583 713.23762053571 1020.73855389583 709.53762053571 1020.73855389583 Z"/><path fill="#fb5958" transform="matrix(0.44928300249412245 0 0 0.44928300249412245 19.82581191021159 38.38932162746081)" d="M 637.63762053571 1064.53855389583 C 639.83762053571 1070.13855389583 645.23762053571 1073.73855389583 651.33762053571 1073.83855389583 C 659.43762053571 1073.83855389583 666.13762053571 1067.23855389583 666.13762053571 1059.03855389583 C 666.13762053571 1050.93855389583 659.53762053571 1044.23855389583 651.33762053571 1044.23855389583 C 645.23762053571 1044.23855389583 639.83762053571 1047.83855389583 637.63762053571 1053.43855389583 L 608.43762053571 1053.43855389583 C 606.63762053571 1057.23855389583 604.73762053571 1060.93855389583 602.73762053571 1064.53855389583 L 637.63762053571 1064.53855389583 Z M 651.33762053571 1052.23855389583 C 655.03762053571 1052.23855389583 658.13762053571 1055.23855389583 658.13762053571 1059.03855389583 C 658.13762053571 1062.73855389583 655.13762053571 1065.83855389583 651.33762053571 1065.83855389583 C 647.63762053571 1065.83855389583 644.53762053571 1062.83855389583 644.53762053571 1059.03855389583 C 644.63762053571 1055.23855389583 647.63762053571 1052.23855389583 651.33762053571 1052.23855389583 Z"/><path fill="#fb5958" transform="matrix(0.44928300249412245 0 0 0.44928300249412245 19.82581191021159 38.38932162746081)" d="M 338.43762053571 963.33855389583 C 336.13762053571 957.73855389583 330.83762053571 954.13855389583 324.73762053571 954.13855389583 C 316.63762053571 954.13855389583 309.93762053571 960.73855389583 309.93762053571 968.93855389583 C 309.93762053571 977.03855389583 316.53762053571 983.73855389583 324.73762053571 983.73855389583 C 330.83762053571 983.73855389583 336.23762053571 980.03855389583 338.43762053571 974.53855389583 L 381.33762053571 974.53855389583 C 380.73762053571 970.83855389583 380.13762053571 967.23855389583 379.63762053571 963.43855389583 L 338.43762053571 963.33855389583 Z M 324.73762053571 975.63855389583 C 321.03762053571 975.63855389583 317.93762053571 972.63855389583 317.93762053571 968.83855389583 C 317.93762053571 965.13855389583 320.93762053571 962.03855389583 324.73762053571 962.03855389583 C 328.43762053571 962.03855389583 331.53762053571 965.03855389583 331.53762053571 968.83855389583 C 331.43762053571 972.63855389583 328.43762053571 975.63855389583 324.73762053571 975.63855389583 Z"/><path fill="#fb5958" transform="matrix(0.44928300249412245 0 0 0.44928300249412245 19.82581191021159 38.38932162746081)" d="M 318.23762053571 1008.33855389583 C 315.93762053571 1002.73855389583 310.63762053571 999.13855389583 304.53762053571 999.13855389583 C 296.43762053571 999.13855389583 289.73762053571 1005.73855389583 289.73762053571 1013.93855389583 C 289.73762053571 1022.03855389583 296.33762053571 1028.73855389583 304.53762053571 1028.73855389583 C 310.63762053571 1028.73855389583 316.03762053571 1025.03855389583 318.23762053571 1019.53855389583 L 392.63762053571 1019.53855389583 C 391.43762053571 1015.83855389583 390.23762053571 1012.13855389583 389.13762053571 1008.43855389583 L 318.23762053571 1008.33855389583 Z M 304.53762053571 1020.73855389583 C 300.83762053571 1020.73855389583 297.73762053571 1017.73855389583 297.73762053571 1013.93855389583 C 297.73762053571 1010.23855389583 300.73762053571 1007.13855389583 304.53762053571 1007.13855389583 C 308.23762053571 1007.13855389583 311.33762053571 1010.13855389583 311.33762053571 1013.93855389583 C 311.33762053571 1017.63855389583 308.23762053571 1020.73855389583 304.53762053571 1020.73855389583 Z"/><path fill="#fb5958" transform="matrix(0.44928300249412245 0 0 0.44928300249412245 19.82581191021159 38.38932162746081)" d="M 376.43762053571 1053.43855389583 C 374.13762053571 1047.83855389583 368.83762053571 1044.23855389583 362.73762053571 1044.23855389583 C 354.63762053571 1044.23855389583 347.93762053571 1050.83855389583 347.93762053571 1059.03855389583 C 347.93762053571 1067.13855389583 354.53762053571 1073.83855389583 362.73762053571 1073.83855389583 C 368.83762053571 1073.83855389583 374.23762053571 1070.13855389583 376.43762053571 1064.53855389583 L 412.83762053571 1064.53855389583 C 410.73762053571 1060.93855389583 408.83762053571 1057.23855389583 406.93762053571 1053.43855389583 L 376.43762053571 1053.43855389583 Z M 362.73762053571 1065.73855389583 C 359.03762053571 1065.73855389583 355.93762053571 1062.73855389583 355.93762053571 1058.93855389583 C 355.93762053571 1055.23855389583 358.93762053571 1052.13855389583 362.73762053571 1052.13855389583 C 366.43762053571 1052.13855389583 369.53762053571 1055.13855389583 369.53762053571 1058.93855389583 C 369.43762053571 1062.73855389583 366.43762053571 1065.73855389583 362.73762053571 1065.73855389583 Z"/><path id="text" fill="#2f2f2f" transform="matrix(0.797067826690419 0 0 0.797067826690419 253.93337841763463 46.09332586222055)" d="M 170.19221473132 547.19857570055 C 163.21621473132 547.19857570055 159.72821473132 549.50257570055 159.72821473132 554.11057570055 C 159.72821473132 556.15857570055 160.59221473132 557.72657570055 162.32021473132 558.81457570055 C 164.04821473132 559.90257570055 168.09621473132 561.47057570055 174.46421473132 563.51857570055 C 180.83221473132 565.56657570055 185.29621473132 567.88657570055 187.85621473132 570.47857570055 C 190.41621473132 573.07057570055 191.69621473132 577.05457570055 191.69621473132 582.43057570055 C 191.69621473132 589.27857570055 189.61621473132 594.46257570055 185.45621473132 597.98257570055 C 181.29621473132 601.50257570055 175.85621473132 603.26257570055 169.13621473132 603.26257570055 C 164.14421473132 603.26257570055 158.03221473132 602.49457570055 150.80021473132 600.95857570055 L 147.34421473132 600.28657570055 L 148.68821473132 590.01457570055 C 157.26421473132 591.16657570055 163.82421473132 591.74257570055 168.36821473132 591.74257570055 C 175.15221473132 591.74257570055 178.54421473132 588.92657570055 178.54421473132 583.29457570055 C 178.54421473132 581.24657570055 177.76021473132 579.64657570055 176.19221473132 578.49457570055 C 174.62421473132 577.34257570055 171.50421473132 576.09457570055 166.83221473132 574.75057570055 C 159.40821473132 572.63857570055 154.17621473132 570.12657570055 151.13621473132 567.21457570055 C 148.09621473132 564.30257570055 146.57621473132 560.25457570055 146.57621473132 555.07057570055 C 146.57621473132 548.54257570055 148.56021473132 543.67857570055 152.52821473132 540.47857570055 C 156.49621473132 537.27857570055 161.93621473132 535.67857570055 168.84821473132 535.67857570055 C 173.58421473132 535.67857570055 179.60021473132 536.31857570055 186.89621473132 537.59857570055 L 190.35221473132 538.27057570055 L 189.29621473132 548.73457570055 C 180.27221473132 547.71057570055 173.90421473132 547.19857570055 170.19221473132 547.19857570055 Z M 226.54421473132 591.74257570055 C 231.72821473132 591.74257570055 235.26421473132 590.06257570055 237.15221473132 586.70257570055 C 239.04021473132 583.34257570055 239.98421473132 577.71057570055 239.98421473132 569.80657570055 C 239.98421473132 561.90257570055 239.02421473132 556.15857570055 237.10421473132 552.57457570055 C 235.18421473132 548.99057570055 231.66421473132 547.19857570055 226.54421473132 547.19857570055 C 221.42421473132 547.19857570055 217.90421473132 548.99057570055 215.98421473132 552.57457570055 C 214.06421473132 556.15857570055 213.10421473132 561.90257570055 213.10421473132 569.80657570055 C 213.10421473132 577.71057570055 214.04821473132 583.34257570055 215.93621473132 586.70257570055 C 217.82421473132 590.06257570055 221.36021473132 591.74257570055 226.54421473132 591.74257570055 Z M 226.54421473132 603.26257570055 C 216.62421473132 603.26257570055 209.63221473132 600.55857570055 205.56821473132 595.15057570055 C 201.50421473132 589.74257570055 199.47221473132 581.27857570055 199.47221473132 569.75857570055 C 199.47221473132 558.23857570055 201.50421473132 549.67857570055 205.56821473132 544.07857570055 C 209.63221473132 538.47857570055 216.62421473132 535.67857570055 226.54421473132 535.67857570055 C 236.46421473132 535.67857570055 243.45621473132 538.47857570055 247.52021473132 544.07857570055 C 251.58421473132 549.67857570055 253.61621473132 558.23857570055 253.61621473132 569.75857570055 C 253.61621473132 581.27857570055 251.58421473132 589.74257570055 247.52021473132 595.15057570055 C 243.45621473132 600.55857570055 236.46421473132 603.26257570055 226.54421473132 603.26257570055 Z M 306.32021473132 601.05457570055 C 299.53621473132 602.52657570055 293.42421473132 603.26257570055 287.98421473132 603.26257570055 C 282.54421473132 603.26257570055 278.19221473132 602.59057570055 274.92821473132 601.24657570055 C 271.66421473132 599.90257570055 269.10421473132 597.75857570055 267.24821473132 594.81457570055 C 265.39221473132 591.87057570055 264.11221473132 588.41457570055 263.40821473132 584.44657570055 C 262.70421473132 580.47857570055 262.35221473132 575.48657570055 262.35221473132 569.47057570055 C 262.35221473132 556.86257570055 264.12821473132 548.07857570055 267.68021473132 543.11857570055 C 271.23221473132 538.15857570055 277.77621473132 535.67857570055 287.31221473132 535.67857570055 C 292.81621473132 535.67857570055 299.18421473132 536.54257570055 306.41621473132 538.27057570055 L 306.03221473132 548.83057570055 C 299.69621473132 547.87057570055 294.43221473132 547.39057570055 290.24021473132 547.39057570055 C 286.04821473132 547.39057570055 283.05621473132 547.95057570055 281.26421473132 549.07057570055 C 279.47221473132 550.19057570055 278.14421473132 552.31857570055 277.28021473132 555.45457570055 C 276.41621473132 558.59057570055 275.98421473132 563.93457570055 275.98421473132 571.48657570055 C 275.98421473132 579.03857570055 276.86421473132 584.27057570055 278.62421473132 587.18257570055 C 280.38421473132 590.09457570055 283.90421473132 591.55057570055 289.18421473132 591.55057570055 C 294.46421473132 591.55057570055 300.08021473132 591.10257570055 306.03221473132 590.20657570055 L 306.32021473132 601.05457570055 Z M 317.07221473132 602.11057570055 L 317.07221473132 536.83057570055 L 330.32021473132 536.83057570055 L 330.32021473132 602.11057570055 L 317.07221473132 602.11057570055 Z M 339.05621473132 602.11057570055 L 353.74421473132 536.83057570055 L 378.89621473132 536.83057570055 L 393.58421473132 602.11057570055 L 380.33621473132 602.11057570055 L 377.74421473132 590.30257570055 L 354.89621473132 590.30257570055 L 352.30421473132 602.11057570055 L 339.05621473132 602.11057570055 Z M 364.01621473132 547.77457570055 L 357.39221473132 578.78257570055 L 375.24821473132 578.78257570055 L 368.62421473132 547.77457570055 L 364.01621473132 547.77457570055 Z M 439.47221473132 602.11057570055 L 402.32021473132 602.11057570055 L 402.32021473132 536.83057570055 L 415.56821473132 536.83057570055 L 415.56821473132 590.39857570055 L 439.47221473132 590.39857570055 L 439.47221473132 602.11057570055 Z M 441.29621473132 582.43057570055 L 441.29621473132 570.71857570055 L 469.71221473132 570.71857570055 L 469.71221473132 582.43057570055 L 441.29621473132 582.43057570055 Z M 523.56821473132 601.05457570055 C 516.78421473132 602.52657570055 510.67221473132 603.26257570055 505.23221473132 603.26257570055 C 499.79221473132 603.26257570055 495.44021473132 602.59057570055 492.17621473132 601.24657570055 C 488.91221473132 599.90257570055 486.35221473132 597.75857570055 484.49621473132 594.81457570055 C 482.64021473132 591.87057570055 481.36021473132 588.41457570055 480.65621473132 584.44657570055 C 479.95221473132 580.47857570055 479.60021473132 575.48657570055 479.60021473132 569.47057570055 C 479.60021473132 556.86257570055 481.37621473132 548.07857570055 484.92821473132 543.11857570055 C 488.48021473132 538.15857570055 495.02421473132 535.67857570055 504.56021473132 535.67857570055 C 510.06421473132 535.67857570055 516.43221473132 536.54257570055 523.66421473132 538.27057570055 L 523.28021473132 548.83057570055 C 516.94421473132 547.87057570055 511.68021473132 547.39057570055 507.48821473132 547.39057570055 C 503.29621473132 547.39057570055 500.30421473132 547.95057570055 498.51221473132 549.07057570055 C 496.72021473132 550.19057570055 495.39221473132 552.31857570055 494.52821473132 555.45457570055 C 493.66421473132 558.59057570055 493.23221473132 563.93457570055 493.23221473132 571.48657570055 C 493.23221473132 579.03857570055 494.11221473132 584.27057570055 495.87221473132 587.18257570055 C 497.63221473132 590.09457570055 501.15221473132 591.55057570055 506.43221473132 591.55057570055 C 511.71221473132 591.55057570055 517.32821473132 591.10257570055 523.28021473132 590.20657570055 L 523.56821473132 601.05457570055 Z M 560.62421473132 602.11057570055 L 547.37621473132 602.11057570055 L 547.37621473132 575.71057570055 L 527.21621473132 536.83057570055 L 541.90421473132 536.83057570055 L 553.90421473132 562.84657570055 L 565.90421473132 536.83057570055 L 580.59221473132 536.83057570055 L 560.62421473132 575.71057570055 L 560.62421473132 602.11057570055 Z M 587.79221473132 536.83057570055 L 613.42421473132 536.83057570055 C 620.20821473132 536.83057570055 625.29621473132 538.19057570055 628.68821473132 540.91057570055 C 632.08021473132 543.63057570055 633.77621473132 548.03057570055 633.77621473132 554.11057570055 C 633.77621473132 557.75857570055 633.23221473132 560.65457570055 632.14421473132 562.79857570055 C 631.05621473132 564.94257570055 629.20021473132 566.84657570055 626.57621473132 568.51057570055 C 629.45621473132 569.72657570055 631.58421473132 571.48657570055 632.96021473132 573.79057570055 C 634.33621473132 576.09457570055 635.02421473132 579.29457570055 635.02421473132 583.39057570055 C 635.02421473132 589.72657570055 633.16821473132 594.43057570055 629.45621473132 597.50257570055 C 625.74421473132 600.57457570055 620.52821473132 602.11057570055 613.80821473132 602.11057570055 L 587.79221473132 602.11057570055 L 587.79221473132 536.83057570055 Z M 613.13621473132 574.84657570055 L 601.04021473132 574.84657570055 L 601.04021473132 590.78257570055 L 613.13621473132 590.78257570055 C 616.01621473132 590.78257570055 618.14421473132 590.20657570055 619.52021473132 589.05457570055 C 620.89621473132 587.90257570055 621.58421473132 585.79057570055 621.58421473132 582.71857570055 C 621.58421473132 577.47057570055 618.76821473132 574.84657570055 613.13621473132 574.84657570055 Z M 612.75221473132 548.15857570055 L 601.04021473132 548.15857570055 L 601.04021473132 563.71057570055 L 612.84821473132 563.71057570055 C 617.84021473132 563.71057570055 620.33621473132 561.11857570055 620.33621473132 555.93457570055 C 620.33621473132 550.75057570055 617.80821473132 548.15857570055 612.75221473132 548.15857570055 Z M 646.25621473132 602.11057570055 L 646.25621473132 536.83057570055 L 688.49621473132 536.83057570055 L 688.49621473132 548.35057570055 L 659.50421473132 548.35057570055 L 659.50421473132 563.61457570055 L 682.73621473132 563.61457570055 L 682.73621473132 574.94257570055 L 659.50421473132 574.94257570055 L 659.50421473132 590.59057570055 L 688.49621473132 590.59057570055 L 688.49621473132 602.11057570055 L 646.25621473132 602.11057570055 Z M 712.68821473132 580.22257570055 L 712.68821473132 602.11057570055 L 699.44021473132 602.11057570055 L 699.44021473132 536.83057570055 L 724.78421473132 536.83057570055 C 740.14421473132 536.83057570055 747.82421473132 543.99857570055 747.82421473132 558.33457570055 C 747.82421473132 566.84657570055 744.62421473132 573.11857570055 738.22421473132 577.15057570055 L 747.53621473132 602.11057570055 L 733.04021473132 602.11057570055 L 725.45621473132 580.22257570055 L 712.68821473132 580.22257570055 Z M 731.98421473132 566.01457570055 C 733.52021473132 564.09457570055 734.28821473132 561.56657570055 734.28821473132 558.43057570055 C 734.28821473132 555.29457570055 733.47221473132 552.79857570055 731.84021473132 550.94257570055 C 730.20821473132 549.08657570055 727.85621473132 548.15857570055 724.78421473132 548.15857570055 L 712.68821473132 548.15857570055 L 712.68821473132 568.89457570055 L 724.97621473132 568.89457570055 C 728.11221473132 568.89457570055 730.44821473132 567.93457570055 731.98421473132 566.01457570055 Z"/></svg>